<?xml version="1.0" encoding="utf-8"?>
<!-- Generator: Adobe Illustrator 24.1.3, SVG Export Plug-In . SVG Version: 6.00 Build 0)  -->
<svg version="1.1" id="Camada_1" xmlns="http://www.w3.org/2000/svg" xmlns:xlink="http://www.w3.org/1999/xlink" x="0px" y="0px"
	 viewBox="0 0 688 648" style="enable-background:new 0 0 688 648;" xml:space="preserve">
<style type="text/css">
	.st0{opacity:0.1;}
	.st1{clip-path:url(#SVGID_2_);}
	.st2{fill:url(#SVGID_3_);}
</style>
<g class="st0">
	<g>
		<defs>
			<rect id="SVGID_1_" y="-40" width="688" height="688"/>
		</defs>
		<clipPath id="SVGID_2_">
			<use xlink:href="#SVGID_1_"  style="overflow:visible;"/>
		</clipPath>
		<g class="st1">
			
				<linearGradient id="SVGID_3_" gradientUnits="userSpaceOnUse" x1="344" y1="675.6667" x2="344" y2="16.3238" gradientTransform="matrix(1 0 0 -1 0 650)">
				<stop  offset="0" style="stop-color:#121214"/>
				<stop  offset="1" style="stop-color:#121214;stop-opacity:0"/>
			</linearGradient>
			<path class="st2" d="M344-25.7c-190.1,0-344,151.4-344,338c0,149.4,98.6,276.1,235.2,320.7c17.2,3.2,23.5-7.3,23.5-16.3
				c0-8-0.3-29.3-0.4-57.5C162.6,579.7,142.4,514,142.4,514c-15.7-39-38.3-49.5-38.3-49.5c-31.2-21,2.4-20.5,2.4-20.5
				c34.5,2.4,52.7,34.8,52.7,34.8c30.7,51.7,80.5,36.8,100.2,28.1c3.1-21.9,12-36.8,21.8-45.2c-76.4-8.5-156.7-37.5-156.7-167
				c0-36.9,13.3-67.1,35.4-90.7c-3.9-8.5-15.5-42.9,3-89.5c0,0,28.8-9.1,94.6,34.7c27.5-7.5,56.8-11.2,86-11.4
				c29.2,0.2,58.5,3.9,86,11.4c65.4-43.7,94.2-34.7,94.2-34.7c18.5,46.6,6.9,80.9,3.4,89.5c21.9,23.6,35.3,53.8,35.3,90.7
				c0,129.9-80.4,158.4-157,166.8c12,10.1,23.2,30.9,23.2,62.5c0,45.2-0.4,81.6-0.4,92.6c0,8.9,6,19.4,23.6,16.1
				C589.5,588.3,688,461.5,688,312.4C688,125.7,534-25.7,344-25.7z"/>
		</g>
	</g>
</g>
</svg>
