<?xml version="1.0" encoding="utf-8"?>
<!-- Generator: Adobe Illustrator 24.1.3, SVG Export Plug-In . SVG Version: 6.00 Build 0)  -->
<svg version="1.1" id="Camada_1" xmlns="http://www.w3.org/2000/svg" xmlns:xlink="http://www.w3.org/1999/xlink" x="0px" y="0px"
	 viewBox="0 0 215 32" style="enable-background:new 0 0 215 32;" xml:space="preserve">
<style type="text/css">
	.st0{fill:#607D8B;}
	.st1{fill:#348EB9;}
	.st2{fill-rule:evenodd;clip-rule:evenodd;fill:#607D8B;}
</style>
<path class="st0" d="M49,17.6c0-2,0.5-3.5,1.4-4.7c0.9-1.2,2.2-1.8,3.7-1.8c1.4,0,2.6,0.5,3.4,1.5l0.1-1.3h2.6v12.3
	c0,1.7-0.5,3-1.6,3.9c-1,1-2.4,1.4-4.2,1.4c-0.9,0-1.8-0.2-2.7-0.6c-0.9-0.4-1.6-0.9-2-1.5l1.3-1.7c0.9,1,2,1.6,3.2,1.6
	c0.9,0,1.7-0.3,2.2-0.8c0.5-0.5,0.8-1.3,0.8-2.3v-0.9c-0.8,0.9-1.9,1.4-3.3,1.4c-1.5,0-2.7-0.6-3.6-1.8C49.4,21.3,49,19.7,49,17.6z
	 M51.8,17.8c0,1.3,0.3,2.3,0.8,3c0.5,0.7,1.2,1.1,2.2,1.1c1.1,0,2-0.5,2.6-1.5v-5.6c-0.5-1-1.4-1.4-2.5-1.4c-0.9,0-1.7,0.4-2.2,1.1
	C52.1,15.3,51.8,16.4,51.8,17.8z M66.1,24h-2.8V11.3h2.8V24z M63.1,8c0-0.4,0.1-0.8,0.4-1.1c0.3-0.3,0.7-0.4,1.2-0.4
	s0.9,0.1,1.2,0.4c0.3,0.3,0.4,0.7,0.4,1.1c0,0.4-0.1,0.8-0.4,1.1c-0.3,0.3-0.7,0.4-1.2,0.4s-0.9-0.1-1.2-0.4
	C63.2,8.8,63.1,8.5,63.1,8z M72.8,8.2v3.1H75v2.1h-2.2v7.1c0,0.5,0.1,0.8,0.3,1.1c0.2,0.2,0.5,0.3,1,0.3c0.3,0,0.7,0,1-0.1V24
	c-0.6,0.2-1.3,0.3-1.9,0.3c-2.2,0-3.3-1.2-3.3-3.6v-7.2h-2.1v-2.1h2.1V8.2H72.8z M80,12.7c0.9-1.1,2.1-1.6,3.5-1.6
	c2.7,0,4.1,1.5,4.1,4.6V24h-2.8v-8.2c0-0.9-0.2-1.5-0.6-1.9c-0.4-0.4-0.9-0.6-1.7-0.6c-1.1,0-2,0.5-2.6,1.5V24h-2.8V6H80V12.7z
	 M98.2,22.8c-0.8,1-2,1.5-3.6,1.5c-1.4,0-2.4-0.4-3.1-1.2c-0.7-0.8-1.1-2-1.1-3.5v-8.2h2.8v8.2c0,1.6,0.7,2.4,2,2.4
	c1.4,0,2.3-0.5,2.8-1.5v-9.1h2.8V24h-2.7L98.2,22.8z M115,17.8c0,2-0.4,3.5-1.3,4.7c-0.9,1.2-2.1,1.7-3.6,1.7
	c-1.5,0-2.6-0.5-3.5-1.6l-0.1,1.4h-2.6V6h2.8v6.5c0.8-1,1.9-1.5,3.3-1.5c1.5,0,2.8,0.6,3.6,1.7c0.9,1.1,1.3,2.8,1.3,4.8V17.8z
	 M112.2,17.5c0-1.4-0.2-2.4-0.7-3.1c-0.5-0.7-1.2-1-2.1-1c-1.2,0-2.1,0.5-2.6,1.6v5.2c0.5,1.1,1.4,1.7,2.6,1.7c0.9,0,1.6-0.3,2.1-1
	c0.5-0.7,0.7-1.7,0.8-3V17.5z"/>
<path class="st1" d="M126.7,26.2H116V24h10.7V26.2z M133.8,24.2c-1.8,0-3.3-0.6-4.4-1.7c-1.1-1.1-1.7-2.7-1.7-4.5v-0.4
	c0-1.3,0.2-2.4,0.7-3.4c0.5-1,1.2-1.8,2.1-2.3c0.9-0.6,1.9-0.8,3-0.8c1.7,0,3.1,0.6,4,1.7c0.9,1.1,1.4,2.7,1.4,4.7v1.1h-8.3
	c0.1,1,0.4,1.9,1,2.5c0.6,0.6,1.4,0.9,2.3,0.9c1.3,0,2.4-0.5,3.2-1.6l1.5,1.5c-0.5,0.8-1.2,1.3-2,1.8
	C135.8,24,134.9,24.2,133.8,24.2z M133.5,13.4c-0.8,0-1.4,0.3-1.9,0.8c-0.5,0.5-0.8,1.3-0.9,2.3h5.4v-0.2c-0.1-1-0.3-1.7-0.8-2.2
	C134.9,13.6,134.3,13.4,133.5,13.4z M145.7,15.5l2.4-4.2h3.2l-3.9,6.2l4,6.4h-3.1l-2.5-4.3l-2.5,4.3H140l4-6.4l-3.9-6.2h3.1
	L145.7,15.5z M164.3,17.8c0,2-0.4,3.5-1.3,4.7c-0.9,1.2-2.1,1.7-3.6,1.7c-1.4,0-2.5-0.5-3.3-1.4v6h-2.8V11.3h2.6l0.1,1.3
	c0.8-1,2-1.5,3.4-1.5c1.5,0,2.8,0.6,3.6,1.7c0.9,1.1,1.3,2.7,1.3,4.8V17.8z M161.5,17.5c0-1.3-0.3-2.3-0.8-3
	c-0.5-0.7-1.2-1.1-2.2-1.1c-1.2,0-2,0.5-2.5,1.4v5.6c0.5,1,1.4,1.5,2.5,1.5c0.9,0,1.6-0.4,2.1-1.1C161.2,20.1,161.5,19,161.5,17.5z
	 M169.7,24h-2.8V6h2.8V24z M172.3,17.5c0-1.2,0.2-2.4,0.7-3.4c0.5-1,1.2-1.8,2.1-2.3c0.9-0.5,1.9-0.8,3.1-0.8c1.7,0,3.1,0.6,4.2,1.7
	c1.1,1.1,1.6,2.6,1.7,4.4l0,0.7c0,1.3-0.2,2.4-0.7,3.4c-0.5,1-1.2,1.7-2.1,2.3c-0.9,0.5-1.9,0.8-3.1,0.8c-1.8,0-3.2-0.6-4.3-1.8
	c-1.1-1.2-1.6-2.8-1.6-4.8V17.5z M175.2,17.8c0,1.3,0.3,2.3,0.8,3.1c0.5,0.7,1.3,1.1,2.3,1.1c1,0,1.7-0.4,2.2-1.1
	c0.5-0.8,0.8-1.8,0.8-3.3c0-1.3-0.3-2.3-0.8-3c-0.5-0.8-1.3-1.1-2.2-1.1c-0.9,0-1.7,0.4-2.2,1.1C175.4,15.2,175.2,16.3,175.2,17.8z
	 M193.2,13.9c-0.4-0.1-0.8-0.1-1.2-0.1c-1.3,0-2.2,0.5-2.6,1.5V24h-2.8V11.3h2.7l0.1,1.4c0.7-1.1,1.6-1.7,2.9-1.7
	c0.4,0,0.7,0.1,1,0.2L193.2,13.9z M200.3,24.2c-1.8,0-3.3-0.6-4.4-1.7c-1.1-1.1-1.7-2.7-1.7-4.5v-0.4c0-1.3,0.2-2.4,0.7-3.4
	c0.5-1,1.2-1.8,2.1-2.3c0.9-0.6,1.9-0.8,3-0.8c1.7,0,3.1,0.6,4,1.7c0.9,1.1,1.4,2.7,1.4,4.7v1.1h-8.3c0.1,1,0.4,1.9,1,2.5
	c0.6,0.6,1.4,0.9,2.3,0.9c1.3,0,2.4-0.5,3.2-1.6l1.5,1.5c-0.5,0.8-1.2,1.3-2,1.8C202.3,24,201.4,24.2,200.3,24.2z M200,13.4
	c-0.8,0-1.4,0.3-1.9,0.8c-0.5,0.5-0.8,1.3-0.9,2.3h5.4v-0.2c-0.1-1-0.3-1.7-0.8-2.2C201.4,13.6,200.8,13.4,200,13.4z M214.3,13.9
	c-0.4-0.1-0.8-0.1-1.2-0.1c-1.3,0-2.2,0.5-2.6,1.5V24h-2.8V11.3h2.7l0.1,1.4c0.7-1.1,1.6-1.7,2.9-1.7c0.4,0,0.7,0.1,1,0.2
	L214.3,13.9z"/>
<path class="st2" d="M0,16C0,7.2,7.2,0,16,0c8.8,0,16,7.2,16,16c0,8.8-7.2,16-16,16C7.2,32,0,24.8,0,16z M6.4,25.6l13.1-6.1
	l6.1-13.1l-13.1,6.1L6.4,25.6z M17.8,16c0,1-0.8,1.8-1.8,1.8c-1,0-1.8-0.8-1.8-1.8c0-1,0.8-1.8,1.8-1.8C17,14.2,17.8,15,17.8,16z"/>
</svg>
